<?xml version="1.0"?>
<svg width="900" height="980" xmlns="http://www.w3.org/2000/svg" xmlns:svg="http://www.w3.org/2000/svg" preserveAspectRatio="xMidYMid meet" version="1.0">
 <metadata>Created by potrace 1.16, written by Peter Selinger 2001-2019</metadata>
 <g class="layer">
  <title>Layer 1</title>
  <g fill="#000000" id="svg_1" transform="matrix(0.1 0 0 -0.1 0 0)">
   <path d="m4540,-117c-156,-149 -293,-290 -333,-343c-31,-39 -32,-40 -35,-17c-2,14 1,72 6,128c6,57 8,106 7,107c-2,2 -48,-30 -103,-72c-55,-42 -241,-171 -414,-287c-318,-214 -393,-269 -506,-367c-163,-142 -293,-391 -333,-637c-24,-147 -13,-636 22,-968c5,-54 7,-105 4,-115c-3,-9 -26,-32 -51,-50c-25,-19 -59,-55 -75,-80c-27,-43 -29,-52 -29,-146c0,-179 46,-628 75,-739c31,-118 72,-169 172,-212c75,-33 81,-44 123,-219c79,-333 246,-754 395,-996c112,-182 108,-174 101,-248c-10,-105 -14,-115 -46,-108c-15,3 -88,33 -161,67c-535,248 -1072,282 -1613,102c-603,-200 -1083,-656 -1320,-1253c-97,-247 -146,-507 -146,-782c1,-369 69,-647 244,-996c296,-588 912,-1026 1586,-1127c151,-22 414,-30 536,-16c122,14 143,10 423,-78c541,-172 937,-231 1546,-231c771,0 1461,166 2160,519c613,310 1068,666 1541,1207c143,164 404,516 404,546c0,16 -145,191 -226,273c-89,89 -192,154 -430,273c-207,104 -354,163 -612,247c-387,127 -595,214 -1149,484c-191,93 -391,189 -443,213c-102,48 -121,64 -145,121c-14,35 -95,472 -95,516c0,12 31,63 69,114c246,327 411,716 535,1255c43,186 46,192 94,192c80,0 137,53 166,153c34,122 60,415 54,627c-5,189 -12,204 -176,342c-38,32 -38,11 -16,385c32,545 2,837 -108,1058c-72,144 -262,351 -423,461c-244,167 -938,534 -1009,534c-10,0 -16,-22 -21,-76l-7,-76l-20,33c-35,57 -48,109 -64,249c-9,74 -19,139 -23,143c-4,4 -63,-45 -131,-110zm-595,-2438c336,-117 560,-150 838,-126c168,14 266,37 494,112c213,71 261,77 332,40c99,-51 187,-181 216,-316c27,-129 40,-388 27,-557c-35,-453 -180,-984 -363,-1327c-138,-257 -298,-432 -473,-516c-106,-50 -160,-57 -421,-53c-222,4 -232,5 -299,31c-394,156 -720,769 -851,1601c-68,434 -51,752 52,965c59,124 153,198 253,200c19,1 107,-24 195,-54zm311,-3198c123,-42 198,-52 394,-52c138,0 205,5 264,18c101,22 133,22 140,0c3,-10 19,-83 35,-163c50,-247 86,-325 196,-428c97,-91 239,-174 635,-371c595,-296 876,-417 1310,-561c365,-121 643,-234 665,-270c11,-17 -23,-61 -160,-206c-405,-428 -763,-700 -1245,-943c-486,-246 -931,-381 -1465,-443c-173,-20 -711,-17 -915,5c-179,20 -378,51 -388,61c-12,13 25,56 134,154c337,303 581,733 673,1184c65,317 50,681 -41,1002c-67,235 -150,413 -297,631c-51,77 -97,152 -101,166c-5,18 1,63 17,133c24,103 25,106 52,106c15,0 59,-11 97,-23zm-1602,-88c114,-12 233,-44 363,-99c453,-189 802,-608 905,-1082c29,-139 32,-483 5,-623c-61,-309 -198,-565 -422,-790c-315,-315 -704,-463 -1160,-441c-314,14 -553,96 -805,274c-116,82 -286,250 -363,358c-168,238 -268,533 -284,836c-36,716 454,1360 1180,1549c134,35 357,42 581,18z" fill="#fdfcfa" id="svg_2"/>
   <path d="m2965,-6685c-5,-2 -27,-6 -48,-10c-49,-8 -132,-80 -414,-359l-212,-209l-102,98c-111,106 -200,169 -263,186c-23,6 -71,9 -107,7c-122,-9 -228,-79 -280,-184c-28,-57 -37,-167 -20,-232c17,-62 109,-171 351,-413c240,-241 266,-259 385,-267c93,-6 141,9 217,66c132,99 807,783 845,857c24,45 28,151 9,217c-41,140 -145,223 -306,242c-25,3 -49,3 -55,1z" fill="#fdfcfa" id="svg_3"/>
  </g>
 </g>
</svg>