<?xml version="1.0"?>
<svg width="539" height="539" xmlns="http://www.w3.org/2000/svg" xmlns:svg="http://www.w3.org/2000/svg" preserveAspectRatio="xMidYMid meet" version="1.0">
 <metadata>Created by potrace 1.16, written by Peter Selinger 2001-2019</metadata>
 <g class="layer">
  <title>Layer 1</title>
  <g fill="#000000" id="svg_1" transform="matrix(0.1 0 0 -0.1 0 0)">
   <path d="m2222,-321c-122,-24 -230,-107 -287,-222c-19,-38 -35,-75 -35,-82c0,-7 -26,-20 -57,-29c-248,-69 -370,-372 -238,-590c23,-39 31,-62 27,-85c-2,-17 -1,-42 2,-55c8,-32 53,-85 81,-96c21,-8 27,-21 208,-515c31,-82 57,-156 59,-163c2,-11 -154,-14 -875,-15c-857,-2 -879,-2 -893,-21c-12,-17 -14,-187 -14,-1128l0,-1108l25,-16c31,-20 63,-10 76,23c6,16 9,358 9,897c0,479 0,955 0,1059l0,187l1995,0l1994,0l11,-42c6,-24 15,-59 21,-78c20,-77 82,-70 -609,-70c-543,0 -620,-2 -640,-16l-22,-15l0,-1019l0,-1020l-417,-2c-230,-2 -567,-2 -749,0l-331,2l-6,50c-9,74 -59,169 -119,230c-143,141 -350,169 -523,70c-103,-59 -194,-190 -210,-302l-7,-48l-233,0c-212,0 -233,-2 -248,-18c-23,-26 -21,-58 5,-76c19,-13 61,-16 254,-16l231,0l13,-42c29,-100 105,-197 193,-247c175,-99 380,-72 526,70c49,48 111,155 111,190c0,10 4,20 9,23c8,5 508,7 2072,6l337,0l5,-29c20,-99 120,-222 221,-271c128,-64 264,-64 392,0c101,49 201,172 221,271l6,29l173,0c161,0 176,2 194,20c19,19 20,33 19,437c0,230 -4,426 -7,436c-4,10 -120,93 -257,185l-250,167l-148,600c-83,338 -154,607 -163,615c-13,13 -125,15 -889,15c-481,0 -875,4 -875,8c0,4 55,157 123,339c118,321 123,331 159,354c46,29 68,70 68,126c0,30 11,65 37,117c37,72 38,77 38,185c0,105 -2,115 -32,176c-41,84 -110,152 -192,193c-61,30 -72,32 -171,32c-86,0 -113,-4 -152,-22c-59,-27 -76,-55 -53,-90c19,-28 27,-28 128,3c198,60 399,-117 373,-327c-8,-63 -46,-136 -67,-129c-26,9 -914,8 -931,-1c-26,-14 -32,-47 -14,-74l16,-25l452,-2c417,-3 452,-4 462,-21c8,-12 8,-22 0,-35c-10,-16 -49,-17 -550,-20c-535,-2 -539,-2 -556,18c-22,27 -13,50 24,57c16,3 36,16 45,29c30,46 -12,87 -76,73c-33,-7 -33,-6 -59,49c-58,127 -17,278 100,362c151,110 346,58 453,-121c27,-44 67,-51 90,-15c16,24 16,28 -6,73c-28,59 -100,137 -154,168c-22,13 -66,31 -97,41c-32,10 -58,23 -58,29c0,22 58,101 100,138c59,50 126,71 209,65c77,-6 133,-31 196,-89c47,-43 73,-49 100,-19c15,17 16,24 5,50c-13,32 -85,97 -137,124c-40,20 -148,46 -188,45c-16,-1 -49,-5 -73,-10zm229,-1175c5,-3 -28,-41 -73,-85l-82,-80l-78,78c-43,43 -78,81 -78,85c0,8 299,10 311,2zm-313,-157l83,-83l-82,-82c-45,-45 -84,-82 -88,-82c-4,0 -23,17 -43,38c-34,34 -78,127 -78,162c0,13 107,130 120,130c3,0 43,-37 88,-83zm470,20l63,-63l-22,-60c-14,-37 -38,-76 -65,-104l-44,-45l-85,85l-85,85l82,82c46,46 85,83 88,83c3,0 34,-28 68,-63zm-228,-432l-85,-85l-85,85l-85,85l85,85l85,85l85,-85l85,-85l-85,-85zm1946,-515l51,0l11,-51c19,-81 21,-79 -61,-79c-43,0 -80,-5 -90,-12c-16,-12 -17,-46 -18,-376c0,-269 2,-367 11,-377c10,-12 49,-15 201,-15l189,0l235,-156l235,-156l0,-38l0,-38l-97,-4c-162,-8 -193,-37 -193,-184c0,-148 39,-184 199,-184l91,0l0,-145l0,-145l-134,0l-133,0l-7,49c-10,75 -67,180 -131,240c-135,128 -325,155 -492,70c-114,-58 -214,-193 -229,-312l-7,-47l-104,0l-104,0l87,168c48,92 122,235 165,318l79,151l0,606c0,537 -2,607 -16,621c-8,9 -24,16 -34,16c-10,0 -26,-7 -34,-16c-14,-14 -16,-82 -16,-601l0,-586l-134,-261c-74,-143 -153,-295 -175,-336l-39,-75l-222,-5c-122,-3 -226,-2 -231,1c-6,4 -11,380 -12,982l-2,977l520,3c286,2 536,2 555,0c19,-1 58,-3 86,-3zm177,-518c37,-152 67,-280 67,-284c0,-5 -56,-8 -125,-8l-125,0l0,285l0,285l58,0l57,0l68,-278zm587,-967l0,-76l-92,3l-93,3l-3,58c-4,81 3,87 104,87l84,0l0,-75zm-3849,-190c72,-25 138,-82 178,-155c34,-61 36,-71 36,-155c0,-84 -2,-94 -35,-154c-38,-71 -103,-127 -182,-156c-64,-24 -186,-17 -245,13c-94,49 -153,122 -179,223c-26,100 3,212 72,289c40,44 88,77 143,96c49,18 158,17 212,-1zm3294,-17c68,-36 123,-92 154,-158c34,-73 36,-191 4,-262c-28,-62 -96,-134 -158,-166c-44,-24 -62,-27 -145,-27c-83,0 -101,3 -145,27c-62,32 -129,103 -158,166c-33,71 -31,189 4,262c34,71 89,125 164,162c55,27 67,29 145,25c67,-3 96,-9 135,-29z" fill="#fdfcfa" id="svg_2"/>
   <path d="m3316,-2726c-14,-13 -16,-61 -16,-370c0,-226 4,-362 10,-375c10,-18 24,-19 260,-19c246,0 249,0 264,22c14,19 16,72 16,370c0,335 -1,349 -20,368c-19,19 -33,20 -259,20c-204,0 -242,-2 -255,-16zm424,-379l0,-285l-170,0l-170,0l0,285l0,285l170,0l170,0l0,-285z" fill="#fdfcfa" id="svg_3"/>
   <path d="m3760,-3640c-16,-16 -20,-33 -20,-90c0,-57 4,-74 20,-90c11,-11 27,-20 35,-20c8,0 24,9 35,20c16,16 20,33 20,90c0,57 -4,74 -20,90c-11,11 -27,20 -35,20c-8,0 -24,-9 -35,-20z" fill="#fdfcfa" id="svg_4"/>
   <path d="m1040,-4389c-48,-26 -77,-59 -95,-110c-19,-55 -19,-81 1,-109c32,-46 94,-13 94,51c0,36 49,87 84,87c62,0 114,-60 100,-115c-9,-34 -59,-75 -94,-75c-33,0 -60,-23 -60,-50c0,-45 70,-65 137,-39c67,25 123,109 123,184c0,75 -56,159 -123,184c-44,17 -128,12 -167,-8z" fill="#fdfcfa" id="svg_5"/>
   <path d="m4305,-4384c-86,-40 -141,-164 -99,-224c31,-45 94,-11 94,52c0,42 46,86 90,86c16,0 42,-11 59,-26c26,-21 31,-33 31,-69c0,-36 -5,-48 -31,-69c-19,-16 -43,-26 -63,-26c-39,0 -56,-15 -56,-51c0,-40 22,-52 85,-47c67,6 119,42 153,108c42,83 18,182 -61,244c-33,26 -48,31 -105,33c-42,2 -78,-2 -97,-11z" fill="#fdfcfa" id="svg_6"/>
   <path d="m657,-2482c-8,-7 -39,-69 -67,-138c-61,-148 -63,-188 -11,-268c52,-82 130,-122 235,-122c68,0 121,21 176,68l35,30l41,-34c107,-88 266,-85 364,6l32,30l34,-30c62,-54 92,-65 184,-65c95,0 139,16 191,68l30,30l32,-31c48,-45 95,-65 169,-70c82,-6 143,14 200,66l39,35l32,-31c105,-102 291,-95 386,13c40,46 70,109 71,148c0,28 -124,286 -144,299c-6,4 -461,8 -1012,8c-785,0 -1004,-3 -1017,-12zm351,-103c2,-2 -2,-30 -9,-64l-13,-61l-159,0c-148,0 -159,1 -152,18c4,9 16,40 26,67l20,50l142,-3c78,-2 143,-5 145,-7zm412,-47c0,-29 -4,-59 -8,-66c-7,-9 -46,-12 -163,-10l-154,3l13,63l14,62l149,0l149,0l0,-52zm410,25c0,-16 3,-45 6,-65l7,-38l-162,0l-161,0l0,49c0,84 -7,81 161,81l149,0l0,-27zm416,-30c9,-32 18,-61 21,-65c2,-5 -68,-8 -156,-8c-181,0 -162,-9 -175,88l-6,42l150,0l149,0l17,-57zm414,-3c16,-33 30,-62 30,-65c0,-3 -71,-4 -157,-3l-157,3l-13,44c-7,24 -15,52 -18,62c-6,18 2,19 139,19l146,0l30,-60zm-1710,-188c0,-28 -94,-82 -141,-82c-43,0 -113,35 -133,65l-16,25l145,0c80,0 145,-4 145,-8zm430,-13c-27,-49 -117,-79 -181,-60c-39,12 -99,55 -99,72c0,5 65,9 145,9c144,0 146,0 135,-21zm433,-4c-23,-32 -90,-65 -132,-65c-47,0 -141,54 -141,82c0,4 65,8 145,8l146,0l-18,-25zm427,-10c-45,-46 -99,-62 -160,-46c-41,11 -100,54 -100,73c0,4 66,8 147,8l147,0l-34,-35zm460,27c0,-13 -41,-48 -77,-66c-61,-31 -134,-14 -187,43l-30,31l147,0c81,0 147,-4 147,-8z" fill="#fdfcfa" id="svg_7"/>
   <path d="m694,-3084c-18,-14 -19,-31 -22,-381c-2,-319 -1,-371 13,-391l15,-24l980,0c876,0 980,2 994,16c14,13 16,63 16,389l0,375l-25,16c-23,15 -27,15 -50,0l-25,-16l-2,-338l-3,-337l-903,-3l-903,-2l3,67l3,68l844,2c615,2 847,6 857,14c19,15 18,54 -2,73c-14,14 -106,16 -860,16l-844,0l0,215c0,202 -1,216 -20,235c-24,24 -39,25 -66,6z" fill="#fdfcfa" id="svg_8"/>
  </g>
 </g>
</svg>