<?xml version="1.0"?>
<svg width="900" height="812" xmlns="http://www.w3.org/2000/svg" xmlns:svg="http://www.w3.org/2000/svg" preserveAspectRatio="xMidYMid meet" version="1.0">
 <metadata>Created by potrace 1.16, written by Peter Selinger 2001-2019</metadata>
 <g class="layer">
  <title>Layer 1</title>
  <g fill="#000000" id="svg_1" transform="matrix(0.1 0 0 -0.1 0 0)">
   <path d="m1815,-30c-542,-8 -552,-9 -689,-76c-139,-68 -272,-189 -328,-297c-43,-85 -199,-532 -539,-1547l-259,-775l15,-99c47,-312 231,-567 498,-691c138,-64 214,-80 377,-79c170,1 247,18 394,87c258,123 441,370 485,656c13,86 25,115 34,85c4,-10 11,-50 17,-89c65,-416 411,-721 840,-742c243,-11 463,69 642,235c136,126 242,329 268,513c6,39 14,79 19,87c11,19 15,7 31,-99c19,-123 87,-282 165,-387c176,-234 455,-363 755,-349c299,14 554,165 708,420c56,92 102,212 119,304c9,49 19,92 24,97c8,9 9,6 34,-122c53,-278 266,-530 540,-637c138,-54 218,-68 364,-63c107,4 140,10 218,36c184,62 304,140 416,270c110,126 176,260 202,407c16,94 30,131 39,105c2,-8 7,-39 11,-68c8,-71 75,-259 117,-329c44,-74 166,-203 244,-259c260,-185 597,-217 881,-84c113,53 194,112 284,208c128,136 193,269 229,462l21,115l-260,775c-267,797 -441,1303 -505,1470c-78,202 -233,345 -459,422c-88,31 -101,32 -297,38c-281,9 -5048,8 -5655,0z" fill="#fdfcfa" id="svg_2" transform="matrix(1 0 0 1 0 0)"/>
   <path d="m601,-5474c1,-875 5,-1665 9,-1756c6,-142 11,-176 35,-248c94,-279 323,-504 600,-588c86,-26 102,-28 380,-34c433,-9 5243,-10 5665,0c329,7 372,10 438,29c156,46 295,133 413,259c83,88 125,153 174,269c72,167 67,38 72,1944l5,1716l-64,-13c-113,-24 -430,-17 -520,12c-17,5 -18,-75 -18,-1588c0,-909 -5,-1645 -10,-1715c-13,-168 -24,-205 -72,-249c-65,-58 -90,-64 -311,-74c-110,-5 -202,-9 -203,-7c-1,1 -4,628 -7,1394l-6,1392l-26,45c-42,71 -116,132 -178,146c-35,8 -253,13 -677,17c-675,5 -985,-3 -1035,-30c-44,-23 -115,-97 -133,-137c-23,-56 -31,-335 -34,-1300c-2,-487 -4,-1029 -6,-1205l-3,-320l-1822,6c-1836,6 -1866,6 -1949,40c-16,6 -48,40 -73,74l-44,63l-3,1218c-2,671 -4,1447 -6,1725l-2,506l-63,-14c-82,-17 -382,-17 -465,1l-62,13l1,-1591z" fill="#fdfcfa" id="svg_3" transform="matrix(1 0 0 1 0 0)"/>
   <path d="m2110,-4529c-94,-5 -121,-10 -150,-28c-54,-33 -107,-93 -132,-148l-23,-50l0,-790c0,-887 -1,-873 66,-949c59,-67 92,-86 162,-97c70,-10 2135,-13 2212,-3c28,4 63,13 78,21c45,22 106,83 130,127l22,41l0,840c0,957 8,874 -91,964c-37,34 -68,53 -101,61c-52,13 -1953,23 -2173,11z" fill="#fdfcfa" id="svg_4"/>
  </g>
 </g>
</svg>